<?xml version="1.0" standalone="no"?>
<!DOCTYPE svg PUBLIC "-//W3C//DTD SVG 20010904//EN"
 "http://www.w3.org/TR/2001/REC-SVG-20010904/DTD/svg10.dtd">
<svg version="1.0" xmlns="http://www.w3.org/2000/svg"
 width="512.000000pt" height="512.000000pt" viewBox="0 0 512.000000 512.000000"
 preserveAspectRatio="xMidYMid meet">

<g transform="translate(0.000000,512.000000) scale(0.100000,-0.100000)"
fill="#000000" stroke="none">
<path d="M2473 4647 c-18 -18 -37 -45 -43 -60 -6 -17 -10 -137 -10 -303 0
-305 3 -322 62 -368 66 -50 151 -27 188 49 18 38 20 63 20 318 0 156 -4 287
-10 301 -5 15 -25 42 -44 61 -31 30 -42 35 -83 34 -40 0 -53 -5 -80 -32z"/>
<path d="M806 3961 c-43 -29 -66 -70 -66 -120 l0 -44 218 -220 c218 -219 219
-220 268 -224 27 -3 61 0 76 6 58 22 86 118 54 179 -17 32 -389 401 -428 425
-36 22 -86 21 -122 -2z"/>
<path d="M4164 3951 c-46 -34 -384 -374 -408 -411 -42 -64 -4 -165 72 -186 74
-22 89 -12 310 208 112 112 210 215 218 230 31 58 9 129 -52 169 -43 28 -94
24 -140 -10z"/>
<path d="M2379 3616 c-2 -3 -45 -12 -94 -20 -156 -25 -343 -96 -491 -187 -431
-263 -693 -728 -694 -1232 l0 -138 131 3 131 3 2 145 c5 284 93 521 274 738
177 213 408 350 687 408 168 35 419 21 575 -32 77 -27 194 -77 222 -96 14 -10
29 -18 32 -18 20 0 185 -132 247 -198 221 -235 331 -512 331 -834 l0 -118 128
0 c147 0 140 -5 140 98 0 238 -61 501 -162 691 -129 245 -352 480 -568 600
-153 85 -279 131 -455 167 -77 16 -424 32 -436 20z"/>
<path d="M175 2294 c-11 -3 -30 -7 -43 -10 -13 -2 -39 -20 -58 -39 -30 -31
-34 -40 -33 -87 1 -49 4 -56 41 -88 l41 -35 299 -3 c333 -3 349 -1 388 63 39
63 15 145 -52 182 -29 16 -64 18 -298 20 -146 1 -274 -1 -285 -3z"/>
<path d="M4395 2291 c-48 -12 -72 -28 -94 -65 -28 -45 -27 -93 4 -138 38 -56
61 -60 391 -56 l291 3 41 35 c37 32 40 39 41 87 1 43 -3 57 -26 81 -53 56 -56
57 -348 59 -148 1 -283 -2 -300 -6z"/>
<path d="M2449 2212 c-47 -42 -157 -138 -244 -212 -87 -74 -192 -165 -234
-201 -42 -36 -134 -116 -206 -177 l-130 -112 -734 0 c-716 0 -736 -1 -776 -20
-23 -11 -47 -31 -53 -45 -6 -14 -16 -25 -22 -25 -17 0 -11 -78 8 -99 9 -10 29
-33 44 -50 l28 -31 829 0 829 0 29 28 c16 15 89 79 162 142 74 63 174 149 221
190 256 221 343 293 355 293 12 0 99 -72 355 -293 47 -41 147 -127 221 -190
73 -63 146 -127 162 -142 l29 -28 834 0 c501 0 834 4 834 9 0 5 18 28 40 50
33 34 40 47 40 81 0 22 -5 40 -10 40 -6 0 -16 11 -22 25 -6 14 -30 34 -53 45
-40 19 -60 20 -776 20 l-734 0 -100 86 c-55 48 -156 134 -224 193 -253 216
-379 325 -478 412 -57 49 -111 89 -120 88 -10 0 -57 -35 -104 -77z"/>
</g>
</svg>
