<?xml version="1.0" standalone="no"?>
<!DOCTYPE svg PUBLIC "-//W3C//DTD SVG 20010904//EN"
 "http://www.w3.org/TR/2001/REC-SVG-20010904/DTD/svg10.dtd">
<svg version="1.0" xmlns="http://www.w3.org/2000/svg"
 width="512.000000pt" height="512.000000pt" viewBox="0 0 512.000000 512.000000"
 preserveAspectRatio="xMidYMid meet">

<g transform="translate(0.000000,512.000000) scale(0.100000,-0.100000)"
fill="#000000" stroke="none">
<path d="M2473 4647 c-18 -18 -37 -45 -43 -60 -6 -17 -10 -137 -10 -303 0
-305 3 -322 62 -368 66 -50 151 -27 188 49 18 38 20 63 20 318 0 156 -4 287
-10 301 -5 15 -25 42 -44 61 -31 30 -42 35 -83 34 -40 0 -53 -5 -80 -32z"/>
<path d="M806 3961 c-43 -29 -66 -70 -66 -120 l0 -44 218 -220 c218 -219 219
-220 268 -224 27 -3 61 0 76 6 58 22 86 118 54 179 -17 32 -389 401 -428 425
-36 22 -86 21 -122 -2z"/>
<path d="M4164 3951 c-46 -34 -384 -374 -408 -411 -42 -64 -4 -165 72 -186 74
-22 89 -12 310 208 112 112 210 215 218 230 31 58 9 129 -52 169 -43 28 -94
24 -140 -10z"/>
<path d="M2385 3615 c-5 -3 -46 -11 -90 -19 -102 -18 -197 -43 -232 -62 -16
-7 -34 -14 -40 -14 -19 0 -191 -91 -271 -143 -246 -159 -472 -447 -562 -717
-28 -86 -58 -199 -64 -245 -20 -151 -25 -207 -25 -272 -1 -109 -9 -103 140
-103 l129 0 0 123 c0 246 62 453 196 657 222 338 586 534 989 534 403 0 767
-196 989 -534 134 -204 196 -411 196 -657 l0 -123 129 0 c149 0 141 -6 140
103 0 65 -5 121 -25 272 -6 46 -36 159 -64 245 -90 270 -316 558 -562 717 -80
52 -252 143 -271 143 -6 0 -24 7 -40 14 -30 17 -116 41 -222 63 -66 14 -417
28 -440 18z"/>
<path d="M175 2294 c-11 -3 -30 -7 -43 -10 -13 -2 -39 -20 -58 -39 -30 -31
-34 -40 -33 -87 1 -49 4 -56 41 -88 l41 -35 299 -3 c333 -3 349 -1 388 63 39
63 15 145 -52 182 -29 16 -64 18 -298 20 -146 1 -274 -1 -285 -3z"/>
<path d="M4395 2291 c-48 -12 -72 -28 -94 -65 -28 -45 -27 -93 4 -138 38 -56
61 -60 391 -56 l291 3 41 35 c37 32 40 39 41 87 1 43 -3 57 -26 81 -53 56 -56
57 -348 59 -148 1 -283 -2 -300 -6z"/>
<path d="M124 1490 c-23 -12 -46 -32 -52 -45 -7 -14 -16 -25 -22 -25 -5 0 -10
-18 -10 -40 0 -34 7 -47 39 -80 22 -22 51 -44 66 -50 17 -6 291 -10 758 -10
l732 0 100 -86 c55 -47 156 -134 224 -192 494 -424 571 -492 571 -502 0 -6 11
-10 25 -10 14 0 25 4 25 10 0 10 77 78 571 502 68 58 169 145 224 192 l100 86
734 0 c716 0 736 1 776 20 23 11 47 31 53 45 6 14 16 25 22 25 5 0 10 20 10
45 0 25 -5 45 -10 45 -6 0 -16 11 -22 25 -6 14 -30 34 -53 45 -40 20 -60 20
-846 20 l-805 0 -30 -22 c-17 -13 -124 -104 -238 -203 -114 -99 -228 -197
-253 -218 -25 -20 -90 -76 -143 -122 -54 -47 -105 -85 -115 -85 -10 0 -61 38
-115 85 -53 46 -118 102 -143 122 -25 21 -139 119 -253 218 -114 99 -221 190
-238 203 l-30 22 -805 0 c-790 0 -807 0 -847 -20z"/>
</g>
</svg>
